<?xml version="1.0" encoding="UTF-8" standalone="no"?>
<!-- Created with Inkscape (http://www.inkscape.org/) -->

<svg
   xmlns:dc="http://purl.org/dc/elements/1.1/"
   xmlns:cc="http://creativecommons.org/ns#"
   xmlns:rdf="http://www.w3.org/1999/02/22-rdf-syntax-ns#"
   xmlns:svg="http://www.w3.org/2000/svg"
   xmlns="http://www.w3.org/2000/svg"
   xmlns:sodipodi="http://sodipodi.sourceforge.net/DTD/sodipodi-0.dtd"
   xmlns:inkscape="http://www.inkscape.org/namespaces/inkscape"
   id="svg4190"
   version="1.1"
   inkscape:version="0.91 r13725"
   width="640"
   height="640"
   viewBox="0 0 640 640"
   sodipodi:docname="15855.svg">
  <metadata
     id="metadata4196">
    <rdf:RDF>
      <cc:Work
         rdf:about="">
        <dc:format>image/svg+xml</dc:format>
        <dc:type
           rdf:resource="http://purl.org/dc/dcmitype/StillImage" />
        <dc:title></dc:title>
      </cc:Work>
    </rdf:RDF>
  </metadata>
  <defs
     id="defs4194" />
  <sodipodi:namedview
     pagecolor="#ffffff"
     bordercolor="#666666"
     borderopacity="1"
     objecttolerance="10"
     gridtolerance="10"
     guidetolerance="10"
     inkscape:pageopacity="0"
     inkscape:pageshadow="2"
     inkscape:window-width="1159"
     inkscape:window-height="707"
     id="namedview4192"
     showgrid="false"
     inkscape:zoom="0.64"
     inkscape:cx="318.57244"
     inkscape:cy="244.46273"
     inkscape:window-x="0"
     inkscape:window-y="0"
     inkscape:window-maximized="0"
     inkscape:current-layer="svg4190" />
  <path
     style="fill:#18000f;fill-opacity:1"
     d="m 143.92402,341.20841 c -2.14462,-1.78665 -4.82325,-2.45841 -9.80283,-2.45841 -4.95913,0 -7.72981,-0.6906 -10.0301,-2.5 -1.74803,-1.375 -3.99803,-2.5 -5,-2.5 -1.00197,0 -3.25197,-1.125 -5,-2.5 -1.74803,-1.375 -4.08675,-2.51737 -5.19716,-2.53861 -1.11041,-0.0212 -5.11268,-3.13065 -8.89393,-6.9098 -3.78125,-3.77915 -8.28125,-7.22255 -10,-7.652 -1.71875,-0.42945 -4.466483,-1.82004 -6.106074,-3.0902 -1.63959,-1.27017 -3.800867,-2.30939 -4.802837,-2.30939 -1.001972,0 -3.251972,-1.125 -5,-2.5 -1.74803,-1.375 -4.086753,-2.51738 -5.197163,-2.53861 -1.110408,-0.0212 -5.112676,-3.13065 -8.893926,-6.9098 -3.78125,-3.77915 -8.28125,-7.21099 -10,-7.62632 -3.762036,-0.90908 -9.99387,-7.24938 -10.015583,-10.18992 -0.0086,-1.16069 -2.258571,-4.52541 -5,-7.47717 C 32.242987,268.55642 30,265.1224 30,263.877 30,260.9845 17.142882,248.75 14.103181,248.75 11.186983,248.75 5,241.7866 5,238.50444 5,237.0672 3.9438826,235.73977 2.5,235.36219 0.17868247,234.75515 0,233.65716 0,220 0,206.34284 0.17868247,205.24485 2.5,204.63781 4.1103764,204.21669 5,202.9328 5,201.02984 5,197.19249 26.968614,175 30.767252,175 c 1.427403,0 3.61339,-1.125 4.857748,-2.5 1.244357,-1.375 3.494357,-2.5 5,-2.5 1.505643,0 3.755642,-1.125 5,-2.5 1.576717,-1.74225 3.849959,-2.5 7.5,-2.5 3.650041,0 5.923282,-0.75775 7.5,-2.5 1.576717,-1.74225 3.849959,-2.5 7.5,-2.5 3.650041,0 5.923282,-0.75775 7.5,-2.5 1.244358,-1.375 3.494357,-2.5 5,-2.5 1.505643,0 3.755642,-1.125 5,-2.5 1.244358,-1.375 3.494357,-2.5 5,-2.5 1.505643,0 3.755642,-1.125 5,-2.5 1.244358,-1.375 3.494357,-2.5 5,-2.5 1.50564,0 3.75564,-1.125 5,-2.5 1.24436,-1.375 3.46738,-2.5 4.94005,-2.5 1.47678,0 4.86715,-2.24233 7.55995,-5 2.6853,-2.75 6.0603,-5 7.5,-5 1.4397,0 4.8147,-2.25 7.5,-5 2.6853,-2.75 6.03843,-5 7.45138,-5 1.68401,0 12.36192,-9.79986 30.99631,-28.447477 C 199.36516,63.740339 200,62.990956 200,57.996257 c 0,-3.521298 0.77684,-5.811821 2.5,-7.371257 1.74225,-1.576718 2.5,-3.849959 2.5,-7.5 0,-3.650041 0.75775,-5.923283 2.5,-7.5 1.375,-1.244358 2.5,-3.452022 2.5,-4.905923 C 210,26.92748 232.2335,5 236.07801,5 237.9328,5 239.22055,4.0956287 239.63781,2.5 240.25696,0.13237178 241.34284,0 260.14579,0 275.58848,0 280,0.36055098 280,1.6226703 c 0,0.8924686 1.95089,3.5643436 4.33531,5.9375 2.38443,2.3731563 4.35318,5.2233477 4.375,6.3337557 0.0219,1.11041 1.16469,3.449133 2.53969,5.197163 1.375,1.748029 2.5,4.054314 2.5,5.125077 0,1.070764 1.74578,3.935167 3.87949,6.365339 4.48626,5.109569 9.44512,5.841633 12.99551,1.918495 1.24436,-1.375 3.45051,-2.5 4.90255,-2.5 C 318.379,30 345,4.295381 345,1.5420879 345,0.38355769 349.97453,0 365,0 380.19567,0 385,0.37636124 385,1.5667615 385,3.9031858 521.55388,140 523.89815,140 c 1.10809,0 3.44491,1.125 5.19294,2.5 1.74802,1.375 3.99802,2.5 5,2.5 1.00197,0 3.25197,1.125 5,2.5 1.74802,1.375 3.99802,2.5 5,2.5 1.00197,0 3.25197,1.125 5,2.5 2.29641,1.80636 5.07097,2.5 10,2.5 4.92902,0 7.70358,0.69364 10,2.5 2.66937,2.09974 5.07097,2.5 15,2.5 9.92902,0 12.33062,0.40026 15,2.5 1.74802,1.375 4.10025,2.5 5.22716,2.5 2.68426,0 19.42519,16.27996 19.42889,18.89392 0.001,1.11042 1.12786,3.44914 2.50286,5.19717 2.2869,2.90731 2.5,5.07097 2.5,25.38265 0,18.7043 -0.31886,22.55675 -2.02283,24.43961 -1.11256,1.22936 -2.30949,4.7785 -2.65987,7.88696 -0.59511,5.27988 -1.66676,6.6815 -16.28599,21.30073 -8.60692,8.60692 -16.61537,15.64896 -17.79656,15.64896 -1.18119,0 -3.57781,1.125 -5.32584,2.5 -1.74802,1.375 -3.99802,2.5 -5,2.5 -1.00197,0 -3.18874,1.07526 -4.85948,2.38947 -2.52706,1.98778 -5.58094,2.46058 -18.16627,2.8125 -11.70809,0.32738 -15.65191,0.88044 -17.44335,2.44617 -1.27315,1.11272 -4.7491,2.33067 -7.72433,2.70656 -2.97523,0.37589 -6.35023,1.51049 -7.5,2.52134 -1.16897,1.02772 -5.51371,2.07237 -9.85614,2.36981 -4.55683,0.31211 -8.6889,1.33631 -10,2.47866 -1.22889,1.07071 -4.66863,2.2543 -7.64386,2.63019 -2.97523,0.37589 -6.35023,1.50089 -7.5,2.5 -1.14977,0.99911 -4.52477,2.12411 -7.5,2.5 -2.97523,0.37589 -6.35023,1.5181 -7.5,2.53824 -1.37438,1.21942 -5.57944,2.00625 -12.27559,2.29691 -7.4784,0.32462 -10.82647,1.02252 -12.59843,2.62614 -1.32732,1.2012 -3.27753,2.18401 -4.33381,2.18401 -1.05627,0 -3.35071,1.125 -5.09874,2.5 -1.74802,1.375 -3.99802,2.5 -5,2.5 -1.00197,0 -3.16325,1.05029 -4.80283,2.33396 -1.91813,1.50174 -5.75007,2.53183 -10.74674,2.88888 -4.58356,0.32752 -8.68121,1.36136 -10,2.52301 -1.32789,1.16965 -5.3848,2.18389 -10,2.5 -4.9129,0.3365 -8.62261,1.30744 -10.09843,2.64302 -2.15608,1.95124 -11.41375,2.10798 -122.23433,2.06954 -117.36007,-0.0408 -119.96413,-0.0937 -122.85255,-2.5 z"
     id="path5370" />
  <path
     style="fill:#18000f;fill-opacity:1"
     d="m 219.31696,275.10912 c -4.15691,-1.99825 -10.62566,-6.48667 -14.375,-9.97427 -3.74932,-3.48759 -7.46957,-6.35093 -8.26721,-6.36296 -0.79764,-0.0125 -4.20549,-2.19978 -7.573,-4.86164 -3.36751,-2.66186 -7.39579,-5.2438 -8.95174,-5.73764 -1.55595,-0.49384 -6.44497,-4.51386 -10.8645,-8.9334 -7.4016,-7.40159 -8.03551,-8.46169 -8.03551,-13.43771 0,-10.21125 12.84337,-29.5515 19.62443,-29.5515 1.16447,0 19.05222,-16.875 39.75057,-37.5 34.72599,-34.60294 37.96619,-37.50064 41.94167,-37.50824 2.36958,-0.005 5.99583,-1.12582 8.05833,-2.49176 3.43561,-2.27532 5.89827,-2.48353 29.375,-2.48353 23.47672,0 25.93939,0.20821 29.375,2.48353 2.0625,1.36594 5.4375,2.49094 7.5,2.5 2.0625,0.009 5.4375,1.13406 7.5,2.5 2.0625,1.36594 5.4375,2.49094 7.5,2.5 2.0625,0.009 5.4375,1.13406 7.5,2.5 2.0625,1.36594 5.19485,2.48724 6.96076,2.49176 1.76593,0.005 16.63358,6.75824 33.03924,15.00824 16.40566,8.25 31.08078,15 32.61137,15 9.00578,0 29.70579,17.21319 31.21064,25.95335 0.4424,2.56941 1.92775,7.07214 3.30079,10.00606 2.18991,4.67945 2.44306,7.38773 2.06181,22.05795 -0.3419,13.15629 -0.86541,17.21778 -2.45422,19.04059 -1.11079,1.27437 -2.36518,3.77644 -2.78753,5.56012 -0.96327,4.06824 -12.36455,14.88193 -15.69054,14.88193 -1.36388,0 -2.8562,0.60905 -3.31626,1.35345 -0.46006,0.7444 -3.16513,2.3641 -6.01127,3.59935 -2.84613,1.23524 -6.51685,3.69694 -8.15717,5.47042 -2.00316,2.16583 -4.87605,3.49674 -8.75,4.05357 -3.17218,0.45597 -6.81085,1.7446 -8.0859,2.86362 -2.08961,1.8339 -11.39876,2.06504 -94.375,2.34325 l -92.05672,0.30865 -7.55804,-3.63319 z"
     id="path5256" />
  <path
     style="fill:#ff66cc;fill-opacity:1"
     d="m 388.125,326.25 c 2.47336,-1.63804 5.87772,-2.48914 10,-2.5 4.12227,-0.0113 7.52664,-0.86196 10,-2.5 2.3809,-1.57681 5.86589,-2.48654 9.54549,-2.49176 4.61168,-0.006 8.78976,-1.5402 20.45451,-7.50824 13.55251,-6.93388 15.2852,-7.50063 22.95451,-7.50824 6.17544,-0.006 9.25387,-0.64293 12.04549,-2.49176 2.0625,-1.36594 5.4375,-2.49094 7.5,-2.5 2.0625,-0.009 5.4375,-1.13406 7.5,-2.5 2.0625,-1.36594 5.4375,-2.49094 7.5,-2.5 2.0625,-0.009 5.4375,-1.13406 7.5,-2.5 2.47336,-1.63804 5.87772,-2.48914 10,-2.5 4.12227,-0.0113 7.52664,-0.86196 10,-2.5 2.0625,-1.36594 5.4375,-2.49094 7.5,-2.5 2.0625,-0.009 5.4375,-1.13406 7.5,-2.5 3.15044,-2.08645 5.87998,-2.48485 17.07214,-2.49176 11.93192,-0.007 14.01901,-0.3569 20,-3.34936 10.25167,-5.12921 30.29222,-25.31457 34.97176,-35.22446 3.74695,-7.93497 3.74932,-7.95467 3.35285,-27.88118 l -0.39675,-19.9406 -8.3005,-8.05633 -8.3005,-8.05631 -11.09301,0 c -8.70486,0 -12.0972,-0.53821 -15.75747,-2.5 -2.56546,-1.375 -5.94046,-2.5 -7.5,-2.5 -1.55955,0 -4.93455,-1.125 -7.5,-2.5 -2.56546,-1.375 -5.88203,-2.5 -7.37017,-2.5 -1.48814,0 -10.34955,-3.7357 -19.69203,-8.30155 L 510.625,149.64689 443.72294,82.948446 376.82089,16.25 l -11.92595,0 -11.92594,0 -11.4139,11.284285 c -6.27765,6.206357 -13.2738,12.091805 -15.547,13.078774 -2.2732,0.986969 -6.05097,3.5146 -8.39504,5.616957 -4.905,4.39921 -8.6783,5.639828 -13.55056,4.45527 C 299.7748,49.64285 278.75,29.028887 278.75,25.867408 c 0,-1.270344 -1.64423,-3.953947 -3.65385,-5.963562 C 271.49617,16.303865 271.23756,16.25 257.554,16.25 l -13.88831,0 -2.52245,4.275242 c -1.38735,2.351383 -4.04026,4.813192 -5.89535,5.470685 -1.85509,0.657494 -5.69508,3.556775 -8.53331,6.442848 -4.07857,4.147297 -5.29235,6.417791 -5.78968,10.83004 -0.34609,3.070449 -1.49569,6.544184 -2.55469,7.71941 -1.05899,1.175226 -2.3057,3.660578 -2.77046,5.523002 -0.46478,1.862425 -1.6336,4.040675 -2.59739,4.840557 -0.9638,0.79988 -1.75236,3.109932 -1.75236,5.133448 0,2.023517 -0.64881,4.907767 -1.44181,6.409444 -2.78397,5.271912 -54.41103,55.816944 -58.94814,57.712674 -2.4415,1.02012 -4.76526,2.38251 -5.16391,3.02754 -0.39864,0.64502 -2.31799,1.52268 -4.26523,1.95037 -2.02405,0.44457 -7.3491,4.51897 -12.43294,9.51293 -4.89088,4.80442 -10.74437,9.56867 -13.00774,10.58721 -2.26338,1.01854 -4.95898,2.40634 -5.99023,3.084 -1.03125,0.67765 -3.28125,1.81841 -5,2.53502 -1.71875,0.71662 -4.53125,2.11423 -6.25,3.10583 -1.71875,0.99159 -4.768209,1.81119 -6.776574,1.82133 -2.008366,0.01 -4.636582,0.90985 -5.84048,1.99936 -1.203899,1.08951 -4.62319,2.28847 -7.598426,2.66436 -2.975236,0.37589 -6.25327,1.38669 -7.28452,2.24621 -1.03125,0.85954 -3.28125,1.9771 -5,2.48349 -1.71875,0.50639 -4.065716,1.74559 -5.21548,2.75379 -1.149764,1.00819 -4.524764,2.14062 -7.5,2.51651 -2.975236,0.37589 -6.25327,1.40939 -7.28452,2.29668 -1.03125,0.88728 -3.378124,1.98832 -5.215275,2.44675 -4.517445,1.12722 -19.448848,16.23642 -20.421438,20.6646 -0.425691,1.93816 -1.581577,4.19417 -2.568636,5.01336 -1.265833,1.05055 -1.794651,4.23512 -1.794651,10.80752 0,8.63228 0.268924,9.58703 3.653846,12.97194 2.009615,2.00962 4.74052,3.65385 6.068679,3.65385 2.775952,0 15.277475,12.66246 15.277475,15.47415 0,1.03059 2.25,4.47348 5,7.65085 2.75,3.17737 5,6.62986 5,7.67218 0,2.59741 6.808081,9.20282 9.485182,9.20282 1.19762,0 5.692203,3.375 9.987962,7.5 4.29576,4.125 8.75481,7.5 9.909002,7.5 1.154192,0 3.528737,1.125 5.276765,2.5 1.74803,1.375 3.99803,2.5 5,2.5 1.001971,0 3.251972,1.125 5,2.5 1.74803,1.375 4.038979,2.5 5.090999,2.5 1.05202,0 5.42748,3.375 9.72323,7.5 4.29576,4.125 8.79925,7.5 10.00774,7.5 1.2085,0 3.24701,0.95001 4.53003,2.11113 1.47582,1.33558 5.18553,2.30652 10.09843,2.64302 4.27111,0.29255 8.60941,1.23789 9.64066,2.10076 1.03125,0.86288 2.71875,1.87911 3.75,2.25829 1.03125,0.37919 54.46875,0.73014 118.75,0.77987 114.6035,0.0888 116.94789,0.0421 120.625,-2.39307 z"
     id="path4989" />
  <path
     style="fill:#ff66cc;fill-opacity:1"
     d="m 388.125,326.25 c 2.47336,-1.63804 5.87772,-2.48914 10,-2.5 4.12227,-0.0113 7.52664,-0.86196 10,-2.5 2.3809,-1.57681 5.86589,-2.48654 9.54549,-2.49176 4.61168,-0.006 8.78976,-1.5402 20.45451,-7.50824 13.55251,-6.93388 15.2852,-7.50063 22.95451,-7.50824 6.17544,-0.006 9.25387,-0.64293 12.04549,-2.49176 2.0625,-1.36594 5.4375,-2.49094 7.5,-2.5 2.0625,-0.009 5.4375,-1.13406 7.5,-2.5 2.0625,-1.36594 5.4375,-2.49094 7.5,-2.5 2.0625,-0.009 5.4375,-1.13406 7.5,-2.5 2.47336,-1.63804 5.87772,-2.48914 10,-2.5 4.12227,-0.0113 7.52664,-0.86196 10,-2.5 2.0625,-1.36594 5.4375,-2.49094 7.5,-2.5 2.0625,-0.009 5.4375,-1.13406 7.5,-2.5 3.15044,-2.08645 5.87998,-2.48485 17.07214,-2.49176 11.93192,-0.007 14.01901,-0.3569 20,-3.34936 10.25167,-5.12921 30.29222,-25.31457 34.97176,-35.22446 3.74695,-7.93497 3.74932,-7.95467 3.35285,-27.88118 l -0.39675,-19.9406 -8.3005,-8.05633 -8.3005,-8.05631 -11.09301,0 c -8.70486,0 -12.0972,-0.53821 -15.75747,-2.5 -2.56546,-1.375 -5.94046,-2.5 -7.5,-2.5 -1.55955,0 -4.93455,-1.125 -7.5,-2.5 -2.56546,-1.375 -5.88203,-2.5 -7.37017,-2.5 -1.48814,0 -10.34955,-3.7357 -19.69203,-8.30155 L 510.625,149.64689 443.72294,82.948446 376.82089,16.25 l -11.92595,0 -11.92594,0 -11.4139,11.284285 c -6.27765,6.206357 -13.2738,12.091805 -15.547,13.078774 -2.2732,0.986969 -6.05097,3.5146 -8.39504,5.616957 -4.905,4.39921 -8.6783,5.639828 -13.55056,4.45527 C 299.7748,49.64285 278.75,29.028887 278.75,25.867408 c 0,-1.270344 -1.64423,-3.953947 -3.65385,-5.963562 C 271.49617,16.303865 271.23756,16.25 257.554,16.25 l -13.88831,0 -2.52245,4.275242 c -1.38735,2.351383 -4.04026,4.813192 -5.89535,5.470685 -1.85509,0.657494 -5.69508,3.556775 -8.53331,6.442848 -4.07857,4.147297 -5.29235,6.417791 -5.78968,10.83004 -0.34609,3.070449 -1.49569,6.544184 -2.55469,7.71941 -1.05899,1.175226 -2.3057,3.660578 -2.77046,5.523002 -0.46478,1.862425 -1.6336,4.040675 -2.59739,4.840557 -0.9638,0.79988 -1.75236,3.109932 -1.75236,5.133448 0,2.023517 -0.64881,4.907767 -1.44181,6.409444 -2.78397,5.271912 -54.41103,55.816944 -58.94814,57.712674 -2.4415,1.02012 -4.76526,2.38251 -5.16391,3.02754 -0.39864,0.64502 -2.31799,1.52268 -4.26523,1.95037 -2.02405,0.44457 -7.3491,4.51897 -12.43294,9.51293 -4.89088,4.80442 -10.74437,9.56867 -13.00774,10.58721 -2.26338,1.01854 -4.95898,2.40634 -5.99023,3.084 -1.03125,0.67765 -3.28125,1.81841 -5,2.53502 -1.71875,0.71662 -4.53125,2.11423 -6.25,3.10583 -1.71875,0.99159 -4.768209,1.81119 -6.776574,1.82133 -2.008366,0.01 -4.636582,0.90985 -5.84048,1.99936 -1.203899,1.08951 -4.62319,2.28847 -7.598426,2.66436 -2.975236,0.37589 -6.25327,1.38669 -7.28452,2.24621 -1.03125,0.85954 -3.28125,1.9771 -5,2.48349 -1.71875,0.50639 -4.065716,1.74559 -5.21548,2.75379 -1.149764,1.00819 -4.524764,2.14062 -7.5,2.51651 -2.975236,0.37589 -6.25327,1.40939 -7.28452,2.29668 -1.03125,0.88728 -3.378124,1.98832 -5.215275,2.44675 -4.517445,1.12722 -19.448848,16.23642 -20.421438,20.6646 -0.425691,1.93816 -1.581577,4.19417 -2.568636,5.01336 -1.265833,1.05055 -1.794651,4.23512 -1.794651,10.80752 0,8.63228 0.268924,9.58703 3.653846,12.97194 2.009615,2.00962 4.74052,3.65385 6.068679,3.65385 2.775952,0 15.277475,12.66246 15.277475,15.47415 0,1.03059 2.25,4.47348 5,7.65085 2.75,3.17737 5,6.62986 5,7.67218 0,2.59741 6.808081,9.20282 9.485182,9.20282 1.19762,0 5.692203,3.375 9.987962,7.5 4.29576,4.125 8.75481,7.5 9.909002,7.5 1.154192,0 3.528737,1.125 5.276765,2.5 1.74803,1.375 3.99803,2.5 5,2.5 1.001971,0 3.251972,1.125 5,2.5 1.74803,1.375 4.038979,2.5 5.090999,2.5 1.05202,0 5.42748,3.375 9.72323,7.5 4.29576,4.125 8.79925,7.5 10.00774,7.5 1.2085,0 3.24701,0.95001 4.53003,2.11113 1.47582,1.33558 5.18553,2.30652 10.09843,2.64302 4.27111,0.29255 8.60941,1.23789 9.64066,2.10076 1.03125,0.86288 2.71875,1.87911 3.75,2.25829 1.03125,0.37919 54.46875,0.73014 118.75,0.77987 114.6035,0.0888 116.94789,0.0421 120.625,-2.39307 z"
     id="path5336" />
  <path
     style="fill:#18000f;fill-opacity:1"
     d="m 217.31874,277.77405 c -3.88094,-1.86947 -10.17539,-6.35218 -13.98768,-9.96155 -3.81227,-3.60938 -7.77462,-6.5625 -8.80521,-6.5625 -1.03059,0 -4.47348,-2.25 -7.65085,-5 -3.17737,-2.75 -6.64654,-5 -7.70925,-5 -1.06271,0 -6.091,-4.03256 -11.17397,-8.96125 l -9.24178,-8.96125 0,-7.79839 c 0,-6.01327 0.7776,-9.32701 3.39699,-14.47625 4.03642,-7.93489 10.80907,-15.19523 16.33187,-17.50793 2.21735,-0.92853 20.26697,-17.90263 40.65494,-38.23243 33.74759,-33.6513 37.00845,-36.56316 40.95415,-36.57074 2.35788,-0.005 5.97455,-1.12582 8.03705,-2.49176 3.46079,-2.29199 5.91146,-2.48416 31.77657,-2.49176 23.83233,-0.007 28.35415,0.28821 30.21548,1.97269 1.2039,1.08952 4.6232,2.28848 7.59842,2.66437 2.97524,0.37589 6.35024,1.50089 7.5,2.5 1.14978,0.99911 4.52478,2.12411 7.5,2.5 2.97524,0.37589 6.35024,1.50089 7.5,2.5 1.14978,0.99911 4.52478,2.13414 7.5,2.52229 2.97524,0.38813 6.75102,1.74672 8.39061,3.01906 1.63958,1.27234 3.80086,2.31335 4.80283,2.31335 1.00198,0 3.25198,1.125 5,2.5 1.74803,1.375 3.99803,2.5 5,2.5 1.00198,0 3.25198,1.125 5,2.5 1.74803,1.375 3.99803,2.5 5,2.5 1.00198,0 3.25198,1.125 5,2.5 1.74803,1.375 3.99803,2.5 5,2.5 1.00198,0 3.25198,1.125 5,2.5 1.74803,1.375 4.04246,2.5 5.09874,2.5 1.05627,0 2.9055,0.89142 4.1094,1.98094 1.2039,1.08951 4.6232,2.2985 7.59842,2.68665 2.97524,0.38813 6.75102,1.74672 8.3906,3.01906 1.63959,1.27234 3.90468,2.31335 5.03353,2.31335 1.12885,0 5.82605,3.80274 10.43824,8.45054 6.81476,6.86738 8.59328,9.5019 9.49338,14.0625 0.60919,3.08657 2.02017,7.29946 3.1355,9.36196 2.76114,5.10596 2.93455,38.37205 0.2248,43.125 -0.9799,1.71875 -2.65017,5.00044 -3.71172,7.29265 -2.57311,5.55611 -9.48468,12.31885 -14.90418,14.58326 -2.41706,1.00991 -4.72083,2.36395 -5.11948,3.00898 -0.39864,0.64502 -2.27409,1.51305 -4.16764,1.92895 -1.89356,0.41589 -5.14118,2.3434 -7.21693,4.28335 -4.98295,4.65697 -8.40995,6.40281 -12.56847,6.40281 -1.88169,0 -4.50878,0.98437 -5.83798,2.1875 -2.25103,2.03753 -8.8995,2.20629 -96.97342,2.46155 l -94.5567,0.27405 -7.05626,-3.39905 z"
     id="path4206" />
  <path
     style="fill:#990066;fill-opacity:1"
     d="m 233.5792,264.35132 c -3.30185,-1.51759 -8.65703,-5.15657 -11.90047,-8.08659 -3.2434,-2.93002 -6.61449,-5.32729 -7.49132,-5.32729 -0.87678,0 -3.80594,-1.82651 -6.50917,-4.05891 -2.70326,-2.23241 -5.65476,-4.0589 -6.55891,-4.0589 -0.90413,0 -5.18211,-3.27355 -9.5066,-7.27456 l -7.86273,-7.27458 0,-6.33058 c 0,-4.88144 0.66157,-7.57147 2.8901,-11.75151 3.43409,-6.4414 9.19614,-12.33519 13.89485,-14.2126 1.88649,-0.75374 17.24276,-14.53298 34.58847,-31.03631 28.71182,-27.31745 31.4861,-29.68124 34.84302,-29.68739 2.00605,-0.005 5.08305,-0.91391 6.83778,-2.02277 2.94437,-1.86057 5.02935,-2.01658 27.03492,-2.02276 20.2761,-0.007 24.12318,0.23397 25.70675,1.60139 1.02427,0.88446 3.93335,1.85775 6.4646,2.16289 2.53128,0.30514 5.40266,1.21839 6.38087,2.02945 0.97821,0.81106 3.8496,1.7243 6.38086,2.02945 2.53128,0.30514 5.40267,1.21839 6.38086,2.02945 0.97821,0.81105 3.8496,1.73246 6.38086,2.04755 2.53128,0.31508 5.74363,1.41796 7.13857,2.45081 1.39492,1.03286 3.23372,1.87792 4.08616,1.87792 0.85247,0 2.76674,0.91327 4.25391,2.02945 1.48719,1.11621 3.40143,2.02945 4.25391,2.02945 0.85246,0 2.76671,0.91325 4.2539,2.02945 1.48721,1.1162 3.40144,2.02945 4.2539,2.02945 0.85248,0 2.76674,0.91325 4.25392,2.02946 1.48718,1.11619 3.40144,2.02944 4.25391,2.02944 0.85246,0 2.76672,0.91324 4.25391,2.02946 1.48719,1.1162 3.43925,2.02944 4.33791,2.02944 0.89866,0 2.47194,0.72365 3.4962,1.60809 1.02424,0.88445 3.93332,1.86588 6.46459,2.18098 2.53127,0.31507 5.74365,1.41795 7.13858,2.45081 1.39493,1.03286 3.32202,1.87792 4.28242,1.87792 0.9604,0 4.95669,3.087 8.88067,6.85997 5.79785,5.57481 7.31099,7.71347 8.07679,11.41567 0.51829,2.50561 1.71871,5.92556 2.66761,7.59984 2.34912,4.14494 2.49668,31.14966 0.19127,35.00802 -0.83369,1.39524 -2.25472,4.05926 -3.15786,5.92002 -2.18916,4.51034 -8.0694,10.0002 -12.6802,11.83842 -2.05639,0.8198 -4.01639,1.91898 -4.35556,2.44261 -0.33917,0.52361 -1.93477,1.22827 -3.54575,1.56589 -1.61101,0.3376 -4.37403,1.90233 -6.14004,3.47712 -4.23939,3.78044 -7.15503,5.19769 -10.69303,5.19769 -1.60088,0 -3.83596,0.79908 -4.96682,1.77577 -1.91514,1.65403 -7.57153,1.79102 -82.5032,1.99823 l -80.44709,0.22247 -6.00332,-2.75928 z"
     id="path5334"
     inkscape:connector-curvature="0" />
  <path
     style="fill:#18000f;fill-opacity:1"
     d="m 310,638.09406 c 0,-2.15166 -4.83072,-4.34406 -9.57171,-4.34406 -1.73743,0 -4.58918,-1.125 -6.3372,-2.5 -1.74803,-1.375 -3.99803,-2.5 -5,-2.5 -1.00198,0 -3.25198,-1.125 -5,-2.5 -1.74803,-1.375 -4.0896,-2.5 -5.20349,-2.5 -2.72468,0 -38.8876,-36.55327 -38.8876,-39.30736 0,-1.19533 -1.125,-3.60353 -2.5,-5.35155 -1.375,-1.74803 -2.5,-4.10573 -2.5,-5.23933 0,-2.78979 -47.68883,-50.10176 -50.50084,-50.10176 -1.22641,0 -3.66005,-1.125 -5.40807,-2.5 -1.74803,-1.375 -4.04954,-2.5 -5.11446,-2.5 C 171.46611,518.75 160,506.86585 160,504.26381 c 0,-1.09697 -1.125,-3.4247 -2.5,-5.17272 -2.39826,-3.0489 -2.5,-5.07098 -2.5,-49.69093 0,-44.9252 0.0854,-46.58991 2.5,-48.77516 1.375,-1.24436 2.5,-3.45499 2.5,-4.91253 C 160,392.21063 177.26105,375 180.77316,375 c 1.42415,0 3.60748,-1.125 4.85184,-2.5 1.91164,-2.11234 3.84996,-2.5 12.5,-2.5 8.65004,0 10.58836,-0.38766 12.5,-2.5 2.21042,-2.44249 3.84996,-2.5 71.27516,-2.5 67.11995,0 69.09987,0.0685 72.19093,2.5 2.53291,1.99239 5.07097,2.5 12.5,2.5 7.42902,0 9.96709,0.50761 12.5,2.5 1.74802,1.375 4.07575,2.5 5.17272,2.5 2.60204,0 14.48619,11.46611 14.48619,13.97663 0,1.06492 1.125,3.36643 2.5,5.11446 2.00739,2.55198 2.5,5.07097 2.5,12.78391 0,7.71294 -0.49261,10.23192 -2.5,12.78391 -1.375,1.74803 -2.5,4.12376 -2.5,5.2794 0,2.73109 -11.0806,13.81169 -13.81169,13.81169 -1.15564,0 -3.44265,1.04101 -5.08223,2.31335 -1.63959,1.27234 -5.44648,2.63509 -8.45973,3.02834 -5.83214,0.76112 -12.63106,6.49205 -12.66194,10.67296 -0.009,1.16069 -2.25856,4.52541 -5,7.47717 -2.74142,2.95175 -4.98441,6.35383 -4.98441,7.56017 0,1.20635 -1.95106,4.13502 -4.3357,6.50818 -4.6639,4.64147 -6.45055,10.11565 -4.77551,14.63198 0.57465,1.54942 18.60976,20.41299 40.07802,41.91902 21.46825,21.50603 39.03319,39.99058 39.03319,41.07678 0,1.0862 1.125,3.40511 2.5,5.15314 2.18282,2.77501 2.5,5.07097 2.5,18.09715 l 0,14.9189 -10.82143,10.82143 c -7.99222,7.99222 -11.6688,10.82589 -14.0625,10.83849 -5.6992,0.03 -8.86607,1.41547 -8.86607,3.87873 0,2.25657 -1.65903,2.35421 -40,2.35421 -35.0108,0 -40,-0.23772 -40,-1.90594 z"
     id="path5376" />
  <path
     style="fill:#18000f;fill-opacity:1"
     d="m 311.25,637.75 c 0,-3.18883 -2.46121,-5.25 -6.26895,-5.25 -1.79793,0 -8.823,-2.78553 -15.61126,-6.19005 -11.29303,-5.6638 -13.80302,-7.64798 -29.52428,-23.33915 -9.70447,-9.6859 -17.53195,-18.55189 -17.98614,-20.37245 -0.44228,-1.77284 -1.53755,-4.0671 -2.43391,-5.09835 -0.89637,-1.03125 -2.03279,-3.28125 -2.52536,-5 -0.49259,-1.71875 -10.82475,-13.14329 -22.96035,-25.38788 -20.04506,-20.22505 -22.9801,-22.70507 -32.06475,-27.09389 -10.67744,-5.15829 -18.68237,-12.26088 -20.03829,-17.77945 -0.4576,-1.86243 -1.62056,-4.04068 -2.58435,-4.84057 -1.44424,-1.1986 -1.75236,-9.4297 -1.75236,-46.81091 l 0,-45.35659 3.34811,-6.67785 c 4.57053,-9.11597 13.30265,-17.92424 22.16404,-22.35731 5.93324,-2.9682 9.0085,-3.69718 15.625,-3.70379 6.1179,-0.006 9.20289,-0.64735 11.98785,-2.49176 3.626,-2.40141 5.99935,-2.4838 71.77658,-2.49176 62.99857,-0.007 68.20495,0.15318 70.43988,2.17577 1.77196,1.60361 5.12003,2.30151 12.59843,2.62614 5.84621,0.25377 10.98387,1.12415 12.06011,2.04314 1.03125,0.88055 3.28125,2.00993 5,2.50972 4.99019,1.45109 12.32355,9.37119 16.47696,17.79526 3.25838,6.60877 3.7513,8.82223 3.26651,14.66814 -0.32923,3.97013 -1.45417,7.8608 -2.65721,9.19014 -1.14744,1.26791 -2.08626,3.25795 -2.08626,4.4223 0,3.06516 -9.78714,13.21815 -13.61606,14.12504 -1.79241,0.42453 -4.19965,1.58775 -5.34942,2.58492 -1.14977,0.99719 -4.52477,2.11652 -7.5,2.4874 -5.994,0.7472 -13.53452,6.67338 -13.53452,10.63693 0,1.2555 -2.25,4.72369 -5,7.70707 -2.75,2.9834 -5,6.3584 -5,7.5 0,1.14162 -2.25,4.51662 -5,7.5 -4.53484,4.91973 -5,6.04675 -5,12.11439 l 0,6.69002 39.17659,39.42019 c 46.40355,46.69209 46.32703,46.58228 45.63686,65.50762 l -0.43845,12.02255 -10.0999,10.09793 c -8.89828,8.89657 -10.75724,10.18164 -15.625,10.80134 -6.66526,0.84853 -8.95368,2.44005 -7.96909,5.54223 C 388.889,639.90714 387.36644,640 350.08424,640 313.52164,640 311.25,639.86839 311.25,637.75 Z"
     id="path5266" />
  <path
     style="fill:#ffcc99;fill-opacity:1"
     d="m 388.28566,618.24064 c 4.71638,-2.19604 7.17235,-4.34019 9.29268,-8.11279 1.58511,-2.82031 3.36964,-5.12785 3.96562,-5.12785 1.9696,0 4.94972,-9.09414 4.20322,-12.8266 -0.39875,-1.9938 -2.69875,-5.93096 -5.11111,-8.74925 -2.41233,-2.81828 -4.38607,-5.98371 -4.38607,-7.03428 0,-1.05057 -15.1484,-17.12119 -33.66312,-35.71251 C 323.11096,501.03815 321.25,498.39091 321.25,481.8751 c 0,-11.37817 0.40149,-12.22212 10.57971,-22.2391 3.6387,-3.58105 7.77408,-8.81013 9.18973,-11.62018 5.16335,-10.24914 18.74861,-20.12823 30.66407,-22.29863 6.21588,-1.13223 12.86753,-7.67788 14.01437,-13.79103 1.49527,-7.9705 -0.13778,-13.35556 -5.6068,-18.48866 -4.66712,-4.38044 -5.50922,-4.6893 -12.85518,-4.71495 -5.11139,-0.0179 -9.7668,-0.89227 -13.3099,-2.5 -5.21389,-2.36586 -8.3152,-2.47073 -71.875,-2.43014 -63.04139,0.0402 -66.68076,0.16548 -71.426,2.45759 -3.12894,1.51137 -7.72041,2.43104 -12.26967,2.45759 -3.99833,0.0234 -8.40028,0.64748 -9.78213,1.38702 -3.24416,1.73623 -11.74236,10.23443 -13.47859,13.47859 -0.88711,1.6576 -1.34461,17.62391 -1.34461,46.92612 l 0,44.41369 3.96312,4.51374 c 2.31904,2.64125 7.89353,6.37437 13.4375,8.99885 8.24464,3.90295 12.04385,7.01381 29.27055,23.96725 17.67888,17.39844 20.37604,20.61855 25.21763,30.10715 4.78298,9.37374 7.60392,12.78027 23.95382,28.92626 17.07427,16.86134 19.46482,18.75455 30.38357,24.0625 l 11.85119,5.76124 35.02381,-0.0125 c 34.28471,-0.0125 35.1591,-0.0752 41.43447,-2.99715 z"
     id="path4995" />
  <path
     style="fill:#18000f;fill-opacity:1"
     d="m 304.96906,561.79363 c -0.67048,-1.76351 -1.21906,-5.36785 -1.21906,-8.00964 0,-9.12265 -11.22443,-25.8282 -18.93565,-28.18234 -1.61664,-0.49355 -3.7831,-1.63074 -4.81435,-2.52711 -1.03125,-0.89636 -3.3988,-2.01003 -5.26122,-2.47479 -1.86243,-0.46477 -4.01068,-1.59744 -4.77388,-2.51704 -0.7632,-0.91961 -2.99741,-2.02557 -4.9649,-2.45771 -1.96749,-0.43214 -4.21749,-1.55714 -5,-2.5 -0.78251,-0.94286 -3.0196,-2.06504 -4.97131,-2.4937 -2.3316,-0.5121 -9.62258,-6.84394 -21.2597,-18.46295 -14.24287,-14.22069 -18.42664,-19.21395 -21.36505,-25.49882 -4.0097,-8.5762 -4.62522,-15.56145 -1.79928,-20.41953 0.9998,-1.71875 2.46174,-4.69757 3.24877,-6.61961 1.38029,-3.37091 7.33089,-7.28838 17.39657,-11.45273 1.03125,-0.42663 3.28125,-1.58911 5,-2.58326 2.48321,-1.43632 9.20533,-1.81132 32.73113,-1.82597 16.28337,-0.01 31.04899,0.53015 32.8125,1.20063 2.75964,1.04922 3.20637,1.97225 3.20637,6.625 0,2.97327 -0.675,6.08094 -1.5,6.90594 -1.07698,1.07698 -9.3603,1.5 -29.37134,1.5 -27.72592,0 -27.9105,0.0179 -35.37497,3.4268 -8.43003,3.84986 -9.58191,6.26401 -8.47673,17.76584 0.55063,5.73045 1.23983,6.71127 12.96479,18.45044 l 12.38325,12.39825 24.525,12.13691 c 25.69305,12.71495 33.91506,18.71944 35.49734,25.92349 0.41985,1.91153 1.57095,4.14577 2.55801,4.96496 2.33145,1.93492 2.58235,26.14561 0.29465,28.43331 -0.825,0.825 -3.93268,1.5 -6.90594,1.5 -4.65275,0 -5.57579,-0.44672 -6.625,-3.20637 z"
     id="path5372" />
  <path
     style="fill:#18000f;fill-opacity:1"
     d="m 307.58305,560.15517 c -0.73318,-1.36994 -1.33305,-4.72588 -1.33305,-7.45763 0,-5.8215 -4.98368,-16.45264 -10.54059,-22.4851 -2.42982,-2.63778 -11.1606,-7.80012 -23.83441,-14.09282 l -20,-9.93025 -16.60528,-16.53218 C 217.99135,472.45486 211.25,462.61932 211.25,454.61274 c 0,-2.05588 1.49583,-6.69212 3.32406,-10.30277 3.09118,-6.10486 4.12461,-6.96747 14.75041,-12.31238 l 11.42637,-5.74759 28.76066,0 c 31.74662,0 33.52969,0.37728 32.78324,6.93664 l -0.41974,3.68836 -30,0.70179 c -29.67688,0.69422 -30.06731,0.73843 -36.25,4.1057 -6.71546,3.65741 -7.80271,5.63825 -8.0004,14.57576 -0.22355,10.1066 1.64575,13.58642 13.93176,25.93501 11.44031,11.49858 11.83901,11.76103 35.94364,23.66089 26.48805,13.07649 31.80959,17.02944 36.8817,27.39645 2.84176,5.80835 3.17575,7.86688 2.85571,17.60103 l -0.36241,11.02337 -3.97945,0.3855 c -2.94654,0.28545 -4.32546,-0.26101 -5.3125,-2.10533 z"
     id="path5262" />
</svg>
